<?xml version="1.0" encoding="UTF-8"?>
<!DOCTYPE svg PUBLIC "-//W3C//DTD SVG 1.1//EN" "http://www.w3.org/Graphics/SVG/1.1/DTD/svg11.dtd">
<svg xmlns="http://www.w3.org/2000/svg" xmlns:xlink="http://www.w3.org/1999/xlink" version="1.1" viewBox="3 1 10 14">
  <path stroke="none" fill="white" fill-rule="evenodd" d="M 4 13 L 3 12 L 5 10 L 3 8 L 6 5 L 8 7 L 9 6 L 5 2 L 6 1 L 10 5 L 12 3 L 13 4 L 11 6
    L 13 8 L 11 10 L 13 12 L 12 13 L 10 11 L 6 15 L 5 14 L 9 10 L 8 9 Z
    M 5 8 L 6 7 L 7 8 L 6 9 Z
    M 9 8 L 10 7 L 11 8 L 10 9 Z" />
</svg>